Clean Scene Releases    http://bitxtre.me/


-------------------------------------------------------------------------------------
                                   nfo





[pre]  
    *********** ****    ****      ***      ******** *********** ****    *** **********
           *+*     +*+*+* *+*+*+   *+* *+*   *+*    *+*    *+*     *+*+*   *+* *+*        
           +*+     +*+ +*+*+ +*+  +*+   +*+  +*+           +*+     *+*+*+  +*+ +*+        
           +$+     +$+  +*+  +$+ +$++*++$++* *$*           +$+     +$+ +*+ +$+ +$++*++$  
           +$+     +$+       +$+ +$+     +$+ +$+   +$+$    +$+     +$+  +$+$+$ +$+        
           $+$     $+$       $+$ $+$     $+$ $+$    $+$    $+$     $+$   $+$+$ $+$        
       $$$$$$$$$$$ $$$       $$$ $$$     $$$  $$$$$$$$ $$$$$$$$$$$ $$$    $$$$ $$$$$$$$$$     
                                                



                           Another Fine Release Brought to you from - IMAGiNE                   
                                                 

********************************************************************************************************************                                
           Harry Potter And The Deathly Hallows Part 1 TS 720p  XViD - IMAGiNE
********************************************************************************************************************

Ripper ...........: IMAGiNE                                        IMDB Rating.......:8.2/10                             
Video Codec.......: XVID                                         Release Date......:28/11/10
Audio Codec.......:MP3                                           Theatre Date......:19/11/10
Audio Bitrate.....:128                                              Runtime.......:2hr 09mins
Subtitles.........:NIL                                                 Language..........:ENGLISH
Resolution...... 1280 x 544                                      IMDb URL..........:http://www.imdb.com/title/tt0926084/

[color=yellow]DETAILS:[/color]

Video
ID                               : 0
Format                           : MPEG-4 Visual
Format profile                   : Advanced Simple@L5
Format settings, BVOP            : Yes
Format settings, QPel            : No
Format settings, GMC             : No warppoints
Format settings, Matrix          : Default (MPEG)
Muxing mode                      : Packed bitstream
Codec ID                         : XVID
Codec ID/Hint                    : XviD
Duration                         : 2h 9mn
Bit rate                         : 2 549 Kbps
Width                            : 1 280 pixels
Height                           : 544 pixels
Display aspect ratio             : 2.35
Frame rate                       : 25.000 fps
Resolution                       : 24 bits
Colorimetry                      : 4:2:0
Scan type                        : Progressive
Bits/(Pixel*Frame)               : 0.146
Stream size                      : 2.30 GiB (95%)
Writing library                  : XviD 1.2.1 (UTC 2008-12-04)

Audio
ID                               : 1
Format                           : MPEG Audio
Format version                   : Version 1
Format profile                   : Layer 3
Codec ID                         : 55
Codec ID/Hint                    : MP3
Duration                         : 2h 9mn
Bit rate mode                    : Constant
Bit rate                         : 128 Kbps
Channel(s)                       : 2 channels
Sampling rate                    : 44.1 KHz
Resolution                       : 16 bits
Stream size                      : 118 MiB (5%)
Alignment                        : Split accross interleaves
Interleave, duration             : 40 ms (1.00 video frame)
Interleave, preload duration     : 500 ms


[color=yellow]SOURCES:[/color]

VIDEO:Harry.Potter.und.die.Heiligtuemer.des.Todes.Teil.1.TELESYNC.German.720p.x264-PFD
AUDIO:OWN

[color=yellow]NOTES:[/color]

IMAGiNE bringing you another release..........Harry Potter And The Deathly Hallows Part 1

Well basically the same as our first release,but never increased the brightness quite as much but all other tweaks 
are the same.Even though to get the real picture so to speak ....you really need to convert it and view on a tv as it looks
alot better than viewing on a pc or going by screenies ;-)

Anyway enjoy harry potter and the deepthroat swallows Part 1

[color=yellow]SCREENS:[/color]

[IMG]http://imagine.takagari.com/HP%20720p/vlcsnap-360096.png[/IMG]
[IMG]http://imagine.takagari.com/HP%20720p/vlcsnap-360476.png[/IMG]
[IMG]http://imagine.takagari.com/HP%20720p/vlcsnap-360955.png[/IMG]
[IMG]http://imagine.takagari.com/HP%20720p/vlcsnap-361487.png[/IMG]
[IMG]http://imagine.takagari.com/HP%20720p/vlcsnap-363559.png[/IMG]